Coordinates
version=1
nRows=29
nColumns=24
inDegrees=yes

Units are S.I. units (second, meters, Newtons, ...)
Angles are in degrees.

endheader
time	pelvis_tilt	pelvis_list	pelvis_rotation	pelvis_tx	pelvis_ty	pelvis_tz	hip_flexion_r	hip_adduction_r	hip_rotation_r	knee_angle_r	ankle_angle_r	subtalar_angle_r	mtp_angle_r	hip_flexion_l	hip_adduction_l	hip_rotation_l	knee_angle_l	ankle_angle_l	subtalar_angle_l	mtp_angle_l	lumbar_extension	lumbar_bending	lumbar_rotation
      4.41000000	     -8.94607224	     -2.22802206	     -3.50543516	     -1.41377141	     -0.00308961	     -0.62308652	      4.90122044	      6.80879453	     -4.94593589	     -6.77808985	      4.41131211	     -7.00469106	      6.73412891	     33.47051858	     -7.83366946	    -15.26736711	    -50.09144854	     -2.05360153	    -14.40192921	      0.80004198	      6.15904683	      5.63632308	      1.48650020
      4.41500000	     -9.04302707	     -2.15558217	     -3.69795209	     -1.40914234	     -0.00344797	     -0.62276622	      4.62045326	      6.74517767	     -4.85550602	     -6.63517929	      4.60560231	     -6.79578937	      6.89519999	     33.70688110	     -7.79482604	    -15.70495680	    -48.54817414	     -1.77345664	    -14.36026478	      0.11654765	      6.17401542	      5.57030098	      1.76951275
      4.42000000	     -9.14743329	     -2.09225797	     -3.85968761	     -1.40446956	     -0.00387046	     -0.62250251	      4.34974071	      6.68488352	     -4.80108031	     -6.50041757	      4.81640254	     -6.58181672	      7.08953089	     33.92903873	     -7.74292448	    -16.13180074	    -46.95744860	     -1.43497150	    -14.20041307	     -0.70331359	      6.20199649	      5.50692581	      2.02353432
      4.42500000	     -9.20342395	     -2.05520555	     -3.90178956	     -1.39971597	     -0.00431394	     -0.62242954	      4.00614216	      6.63287565	     -4.91445613	     -6.32667894	      5.01747169	     -6.37122234	      7.47494785	     34.10214705	     -7.62250512	    -16.44459184	    -45.35799670	     -0.84710817	    -13.82816877	     -2.36100688	      6.19896907	      5.44775862	      2.11919945
      4.43000000	     -9.42164415	     -2.03904323	     -4.00871158	     -1.39503945	     -0.00495686	     -0.62224012	      3.86697853	      6.63120812	     -4.84453347	     -6.21507744	      5.20267889	     -6.30040682	      7.52247957	     34.41617163	     -7.58500721	    -16.81116907	    -43.65244222	     -0.72582473	    -13.59601666	     -2.46979526	      6.35275533	      5.42664885	      2.27232301
      4.43500000	     -9.58521362	     -2.00608972	     -4.15289284	     -1.39032807	     -0.00554945	     -0.62200820	      3.67620878	      6.60750471	     -4.77616708	     -6.12180996	      5.41494404	     -6.15832039	      7.58921151	     34.61552433	     -7.54736900	    -17.25814615	    -41.87577304	     -0.59676936	    -13.26290039	     -2.60936151	      6.44875970	      5.38723319	      2.48287852
      4.44000000	     -9.66853282	     -1.98257468	     -4.33836864	     -1.38560616	     -0.00608041	     -0.62179632	      3.39406050	      6.58137158	     -4.72392124	     -6.02077615	      5.64853463	     -5.89410091	      7.70552709	     34.68164849	     -7.53304491	    -17.78604403	    -40.05265739	     -0.41534884	    -12.81428875	     -2.78837909	      6.44699200	      5.37109688	      2.78548030
      4.44500000	     -9.77183202	     -1.95627156	     -4.44998129	     -1.38086045	     -0.00665135	     -0.62165592	      3.14156711	      6.54780918	     -4.73624928	     -5.93590035	      5.86525984	     -5.68347603	      7.83256456	     34.75377029	     -7.46440352	    -18.25929514	    -38.18492369	     -0.26273509	    -12.22729779	     -2.87237919	      6.47831407	      5.33036488	      2.95728864
      4.45000000	     -9.87470612	     -1.93647796	     -4.55322981	     -1.37611085	     -0.00724804	     -0.62153587	      2.89652018	      6.51946308	     -4.78452778	     -5.86374452	      6.08069787	     -5.47156857	      7.98230817	     34.80261608	     -7.39186713	    -18.74657192	    -36.28946899	     -0.12536855	    -11.53357587	     -2.81083903	      6.50590355	      5.29486064	      3.11905188
      4.45500000	     -9.98205991	     -1.92171652	     -4.65419431	     -1.37132746	     -0.00787921	     -0.62146312	      2.65302054	      6.49061334	     -4.82212332	     -5.79199424	      6.30651033	     -5.23589241	      8.14251003	     34.83478267	     -7.31413618	    -19.24698508	    -34.37934222	      0.02042043	    -10.72355995	     -2.56794882	      6.54230734	      5.27317673	      3.27386477
      4.46000000	    -10.04984820	     -1.90601503	     -4.74648409	     -1.36654741	     -0.00848586	     -0.62139183	      2.38450646	      6.45780403	     -4.93804481	     -5.74878864	      6.53131328	     -4.99282278	      8.34757500	     34.80211927	     -7.22371862	    -19.75960814	    -32.45037758	      0.14200717	     -9.80844311	     -2.04095193	      6.53020755	      5.23796112	      3.44818597
      4.46500000	    -10.13822569	     -1.90457737	     -4.82568281	     -1.36170754	     -0.00912759	     -0.62135767	      2.11936484	      6.43507093	     -5.01687380	     -5.68073210	      6.73766379	     -4.71624974	      8.54973899	     34.78954343	     -7.14271465	    -20.29609542	    -30.54827356	      0.23774983	     -8.79975584	     -1.35038270	      6.55222385	      5.21947556	      3.54248433
      4.47000000	    -10.08492725	     -1.85427120	     -4.86019360	     -1.35677511	     -0.00962727	     -0.62142483	      1.69563351	      6.33331390	     -5.21147055	     -5.59011921	      6.94235196	     -4.39830722	      9.15485818	     34.55497629	     -6.93382790	    -20.73958057	    -28.47229432	     -0.23652835	     -8.15714827	      1.12582069	      6.43561665	      5.13343630	      3.63620875
      4.47500000	    -10.25868096	     -1.88978553	     -4.93052581	     -1.35193182	     -0.01039549	     -0.62142118	      1.55012400	      6.36257403	     -5.31958355	     -5.57823716	      7.11301267	     -4.22237624	      9.23113002	     34.65678821	     -6.88309278	    -21.26296754	    -26.69364545	     -0.02513440	     -6.95244160	      1.66879059	      6.54375023	      5.15340845	      3.72881660
      4.48000000	    -10.15276970	     -1.79345354	     -4.95902986	     -1.34691998	     -0.01080735	     -0.62151897	      1.08587492	      6.20244891	     -5.52909606	     -5.52840218	      7.33440057	     -3.89045505	      9.63018789	     34.34461865	     -6.60514850	    -21.74482168	    -24.67641786	     -0.46596145	     -6.23162473	      4.08104089	      6.37983390	      5.01158092	      3.82730032
      4.48500000	    -10.25055276	     -1.76750392	     -5.02214877	     -1.34195947	     -0.01146459	     -0.62160014	      0.86336184	      6.14317040	     -5.63823765	     -5.53332079	      7.53652613	     -3.64161305	      9.71780449	     34.34283969	     -6.45236407	    -22.23978040	    -22.97716695	     -0.22903336	     -5.05904543	      4.66803933	      6.42543713	      4.97032010	      3.92840429
      4.49000000	    -10.13684002	     -1.64716382	     -5.01077094	     -1.33690085	     -0.01183332	     -0.62182984	      0.39297972	      5.93774973	     -5.84756004	     -5.49073303	      7.76740870	     -3.21853631	     10.11287282	     34.05179777	     -6.10119798	    -22.61837874	    -21.12705323	     -0.61156071	     -4.43083848	      6.78037483	      6.26636388	      4.80478633	      3.94348060
      4.49500000	    -10.15394213	     -1.52620659	     -5.04867857	     -1.33191713	     -0.01230959	     -0.62193702	      0.12465717	      5.76235142	     -6.02074863	     -5.55725449	      7.95946826	     -2.98252392	     10.19013905	     33.96561797	     -5.81623077	    -23.06902164	    -19.55488751	     -0.45912914	     -3.44408894	      7.31045158	      6.23076116	      4.64053252	      4.04305318
      4.50000000	    -10.05511330	     -1.36971323	     -5.02986334	     -1.32689401	     -0.01265846	     -0.62217437	     -0.27558477	      5.51895603	     -6.24209333	     -5.61512815	      8.19993786	     -2.60552120	     10.32259362	     33.75978216	     -5.43308026	    -23.37677870	    -18.04112482	     -0.43994370	     -2.70675744	      8.07995829	      6.07992475	      4.42845719	      4.07253346
      4.50500000	    -10.00509016	     -1.22836806	     -4.99808290	     -1.32192503	     -0.01308683	     -0.62243006	     -0.59749301	      5.29267679	     -6.44703162	     -5.71951149	      8.45060611	     -2.24180567	     10.49854042	     33.64827283	     -5.06924668	    -23.58440722	    -16.67658870	     -0.47385942	     -2.08413733	      8.95161096	      5.97080718	      4.23072606	      4.06404941
      4.51000000	     -9.98438521	     -1.09502096	     -4.94653722	     -1.31688518	     -0.01355877	     -0.62272188	     -0.88645577	      5.08170329	     -6.65207242	     -5.83276054	      8.64382602	     -1.99440478	     10.58971266	     33.59424046	     -4.70459496	    -23.71928556	    -15.46105150	     -0.45482733	     -1.58741957	      9.50991638	      5.90758402	      4.04101177	      4.05394787
      4.51500000	     -9.95501927	     -0.96586111	     -4.89077865	     -1.31186164	     -0.01405379	     -0.62304008	     -1.16331372	      4.86824304	     -6.81693557	     -5.99512224	      8.86029696	     -1.74132629	     10.62921721	     33.55392398	     -4.34721396	    -23.75626340	    -14.39595295	     -0.41307007	     -1.15531258	      9.89679270	      5.82966860	      3.85121019	      4.03509185
      4.52000000	    -10.01540046	     -0.85985578	     -4.81739750	     -1.30680337	     -0.01468708	     -0.62339573	     -1.34081436	      4.69106569	     -6.86520692	     -6.17229523	      9.02638343	     -1.67762656	     10.62858848	     33.64462906	     -4.01592982	    -23.67444442	    -13.50453112	     -0.34476953	     -0.83351466	     10.01256875	      5.85446737	      3.69161349	      3.95839634
      4.52500000	     -9.88901408	     -0.71181089	     -4.77920734	     -1.30172443	     -0.01512766	     -0.62370135	     -1.68135217	      4.44010085	     -7.05254158	     -6.42813234	      9.30908357	     -1.32538033	     10.55527353	     33.50943426	     -3.66078669	    -23.60999933	    -12.70132827	     -0.28705401	     -0.51134243	     10.21300218	      5.67127026	      3.47003590	      3.98492549
      4.53000000	     -9.83505226	     -0.59227504	     -4.73546140	     -1.29653448	     -0.01570056	     -0.62406543	     -1.94376765	      4.22386053	     -7.16588671	     -6.70405225	      9.54761707	     -1.07498269	     10.43596211	     33.46934589	     -3.33852857	    -23.44118827	    -12.05114282	     -0.20083276	     -0.32030818	     10.36675066	      5.58810396	      3.29051879	      3.97778935
      4.53500000	     -9.78898207	     -0.47593205	     -4.69189771	     -1.29131989	     -0.01630967	     -0.62442946	     -2.18418460	      4.01217578	     -7.22664768	     -7.01297784	      9.77702507	     -0.89334615	     10.26787487	     33.45017648	     -3.03321925	    -23.22032931	    -11.54564442	     -0.13400564	     -0.17019220	     10.44389940	      5.51444112	      3.11124335	      3.96864711
      4.54000000	     -9.73947354	     -0.36721152	     -4.65370289	     -1.28604715	     -0.01694968	     -0.62479723	     -2.41669473	      3.80708735	     -7.25721399	     -7.35629394	     10.00446013	     -0.73187367	     10.03605766	     33.43341105	     -2.74871403	    -22.94966284	    -11.17956896	     -0.06442516	     -0.06438398	     10.46798221	      5.44425831	      2.93836934	      3.96780614
      4.54500000	     -9.76943122	     -0.30463639	     -4.63587023	     -1.28075341	     -0.01772171	     -0.62513943	     -2.56001467	      3.66439109	     -7.17028225	     -7.70232371	     10.14465384	     -0.75933994	     10.01821772	     33.52991985	     -2.55076961	    -22.65615424	    -10.99646221	      0.04306124	      0.08118357	     10.50917912	      5.45965501	      2.82073075	      4.00351890
      4.55000000	     -9.65743870	     -0.16273677	     -4.58399181	     -1.27531976	     -0.01835224	     -0.62555165	     -2.84027639	      3.41026585	     -7.22047613	     -8.11081749	     10.40606699	     -0.55083077	      9.63642185	     33.44055848	     -2.23273859	    -22.31832292	    -10.86131545	      0.05048632	      0.04939667	     10.44746161	      5.34613734	      2.60086259	      3.96784604
